<?xml version="1.0" encoding="UTF-8" standalone="no"?>
<!-- Created with Inkscape (http://www.inkscape.org/) -->

<svg
   width="15.844332mm"
   height="16.25028mm"
   viewBox="0 0 15.844332 16.25028"
   version="1.1"
   id="svg1"
   xml:space="preserve"
   xmlns:xlink="http://www.w3.org/1999/xlink"
   xmlns="http://www.w3.org/2000/svg"
   xmlns:svg="http://www.w3.org/2000/svg"><defs
     id="defs1"><linearGradient
       id="linearGradient3240"><stop
         id="stop3242"
         style="stop-color:#f69b89;stop-opacity:1"
         offset="0" /><stop
         id="stop3250"
         style="stop-color:#ec5131;stop-opacity:1"
         offset="0.31032619" /><stop
         id="stop3248"
         style="stop-color:#b2311a;stop-opacity:1"
         offset="0.5" /><stop
         id="stop3252"
         style="stop-color:#781301;stop-opacity:1"
         offset="0.75" /><stop
         id="stop3244"
         style="stop-color:#5b0e00;stop-opacity:1"
         offset="1" /></linearGradient><radialGradient
       cx="-264.07739"
       cy="471.29514"
       r="14.983361"
       fx="-264.07739"
       fy="471.29514"
       id="radialGradient3269"
       xlink:href="#linearGradient3240"
       gradientUnits="userSpaceOnUse"
       gradientTransform="matrix(-1.2276319,-3.7552324e-6,1.4983775e-7,-1.0055106,-588.2673,956.59543)" /><radialGradient
       cx="-264.07739"
       cy="471.29514"
       r="14.983361"
       fx="-264.07739"
       fy="471.29514"
       id="radialGradient3271"
       xlink:href="#linearGradient3240"
       gradientUnits="userSpaceOnUse"
       gradientTransform="matrix(-1.2276319,-3.7552324e-6,1.4983775e-7,-1.0055106,-588.2673,948.84016)" /></defs><g
     id="layer1"
     transform="translate(-108.0874,-111.15806)"><g
       id="g1"
       transform="translate(0.48339844,-0.32226561)"><g
         transform="matrix(0.26458333,0,0,0.26458333,189.18467,-8.8692168)"
         id="g3264"><path
           d="m -255.84411,479.44293 v 7.75213 c 0,4.36771 -6.49083,7.91251 -14.48846,7.91251 -7.99762,0 -14.48845,-3.5448 -14.48845,-7.91251 v -7.75213 z"
           id="path3254"
           style="fill:url(#radialGradient3269);fill-opacity:1;fill-rule:evenodd;stroke:#000000;stroke-width:0.989813;stroke-linecap:square;stroke-linejoin:miter;stroke-miterlimit:4;stroke-dashoffset:0;stroke-opacity:1" /><path
           d="m -255.84411,471.68766 v 7.75213 c 0,4.36771 -6.49083,7.91251 -14.48846,7.91251 -7.99762,0 -14.48845,-3.5448 -14.48845,-7.91251 v -7.75213 z"
           id="path3225"
           style="fill:url(#radialGradient3271);fill-opacity:1;fill-rule:evenodd;stroke:#000000;stroke-width:0.989813;stroke-linecap:square;stroke-linejoin:miter;stroke-miterlimit:4;stroke-dashoffset:0;stroke-opacity:1" /><path
           d="m 37.637911,15.718104 a 14.488457,7.7521262 0 1 1 -28.9769136,0 14.488457,7.7521262 0 1 1 28.9769136,0 z"
           transform="matrix(1,0,0,1.0206897,-293.48202,455.64435)"
           id="path2453"
           style="opacity:1;fill:#e52602;fill-opacity:1;fill-rule:evenodd;stroke:#000000;stroke-width:0.989813;stroke-linecap:square;stroke-linejoin:miter;stroke-miterlimit:4;stroke-dasharray:none;stroke-dashoffset:0;stroke-opacity:1" /></g><g
         style="opacity:1;fill:none;fill-opacity:1;fill-rule:evenodd;stroke:#000000;stroke-width:1.5;stroke-linecap:round;stroke-linejoin:round;stroke-miterlimit:4;stroke-dasharray:none;stroke-opacity:1"
         transform="matrix(0.26458333,0,0,0.26458333,108.19288,114.69973)"
         id="g4"><path
           d="m 22,10 c 10.5,1 16.5,8 16,29 H 15 c 0,-9 10,-6.5 8,-21"
           style="fill:#ffffff;stroke:#000000"
           id="path1" /><path
           d="m 24,18 c 0.38,2.91 -5.55,7.37 -8,9 -3,2 -2.82,4.34 -5,4 -1.042,-0.94 1.41,-3.04 0,-3 -1,0 0.19,1.23 -1,2 -1,0 -4.003,1 -4,-4 0,-2 6,-12 6,-12 0,0 1.89,-1.9 2,-3.5 -0.73,-0.994 -0.5,-2 -0.5,-3 1,-1 3,2.5 3,2.5 h 2 c 0,0 0.78,-1.992 2.5,-3 1,0 1,3 1,3"
           style="fill:#ffffff;stroke:#000000"
           id="path2" /><path
           d="m 9.5,25.5 a 0.5,0.5 0 1 1 -1,0 0.5,0.5 0 1 1 1,0 z"
           style="fill:#000000;stroke:#000000"
           id="path3" /><path
           d="m 15,15.5 a 0.5,1.5 0 1 1 -1,0 0.5,1.5 0 1 1 1,0 z"
           transform="matrix(0.866,0.5,-0.5,0.866,9.693,-5.173)"
           style="fill:#000000;stroke:#000000"
           id="path4" /></g></g></g></svg>
