<?xml version="1.0" encoding="UTF-8" standalone="no"?>
<!-- Created with Inkscape (http://www.inkscape.org/) -->

<svg
   width="500"
   height="500"
   viewBox="0 0 132.29167 132.29166"
   version="1.1"
   id="svg1"
   sodipodi:docname="icon.svg"
   inkscape:version="1.3 (0e150ed6c4, 2023-07-21)"
   xml:space="preserve"
   inkscape:export-filename="icon_white.png"
   inkscape:export-xdpi="384"
   inkscape:export-ydpi="384"
   xmlns:inkscape="http://www.inkscape.org/namespaces/inkscape"
   xmlns:sodipodi="http://sodipodi.sourceforge.net/DTD/sodipodi-0.dtd"
   xmlns="http://www.w3.org/2000/svg"
   xmlns:svg="http://www.w3.org/2000/svg"><sodipodi:namedview
     id="namedview1"
     pagecolor="#ffffff"
     bordercolor="#000000"
     borderopacity="0.25"
     inkscape:showpageshadow="2"
     inkscape:pageopacity="0.0"
     inkscape:pagecheckerboard="0"
     inkscape:deskcolor="#d1d1d1"
     inkscape:document-units="mm"
     inkscape:export-bgcolor="#2a2c31ff"
     inkscape:zoom="1.3068841"
     inkscape:cx="244.09204"
     inkscape:cy="263.22151"
     inkscape:window-width="2560"
     inkscape:window-height="1476"
     inkscape:window-x="-12"
     inkscape:window-y="-12"
     inkscape:window-maximized="1"
     inkscape:current-layer="layer1"
     showguides="true" /><defs
     id="defs1"><inkscape:path-effect
       effect="fillet_chamfer"
       id="path-effect16"
       is_visible="true"
       lpeversion="1"
       nodesatellites_param="F,0,0,1,0,20,0,1 @ F,0,0,1,0,20,0,1 @ F,0,0,1,0,20,0,1 @ F,0,0,1,0,20,0,1 @ F,0,0,1,0,20,0,1 @ F,0,0,1,0,20,0,1"
       radius="0"
       unit="px"
       method="auto"
       mode="F"
       chamfer_steps="1"
       flexible="false"
       use_knot_distance="true"
       apply_no_radius="true"
       apply_with_radius="true"
       only_selected="false"
       hide_knots="false" /><inkscape:path-effect
       effect="fillet_chamfer"
       id="path-effect14"
       is_visible="true"
       lpeversion="1"
       nodesatellites_param="F,0,0,1,0,20,0,1 @ F,0,0,1,0,20,0,1 @ F,0,0,1,0,20,0,1 @ F,0,0,1,0,20,0,1 @ F,0,0,1,0,20,0,1 @ F,0,0,1,0,20,0,1"
       radius="0"
       unit="px"
       method="auto"
       mode="F"
       chamfer_steps="1"
       flexible="false"
       use_knot_distance="true"
       apply_no_radius="true"
       apply_with_radius="true"
       only_selected="false"
       hide_knots="false" /><inkscape:path-effect
       effect="fillet_chamfer"
       id="path-effect11"
       is_visible="true"
       lpeversion="1"
       nodesatellites_param="F,0,0,1,0,20,0,1 @ F,0,0,1,0,20,0,1 @ F,0,0,1,0,20,0,1 @ F,0,0,1,0,20,0,1 @ F,0,0,1,0,20,0,1 @ F,0,0,1,0,20,0,1"
       radius="0"
       unit="px"
       method="auto"
       mode="F"
       chamfer_steps="1"
       flexible="false"
       use_knot_distance="true"
       apply_no_radius="true"
       apply_with_radius="true"
       only_selected="false"
       hide_knots="false" /><inkscape:path-effect
       effect="fillet_chamfer"
       id="path-effect9"
       is_visible="true"
       lpeversion="1"
       nodesatellites_param="F,0,0,1,0,20,0,1 @ F,0,0,1,0,20,0,1 @ F,0,0,1,0,20,0,1 @ F,0,0,1,0,20,0,1 @ F,0,0,1,0,20,0,1 @ F,0,0,1,0,20,0,1"
       radius="0"
       unit="px"
       method="auto"
       mode="F"
       chamfer_steps="1"
       flexible="false"
       use_knot_distance="true"
       apply_no_radius="true"
       apply_with_radius="true"
       only_selected="false"
       hide_knots="false" /><inkscape:path-effect
       effect="fillet_chamfer"
       id="path-effect7"
       is_visible="true"
       lpeversion="1"
       nodesatellites_param="F,0,0,1,0,20,0,1 @ F,0,0,1,0,20,0,1 @ F,0,0,1,0,20,0,1 @ F,0,0,1,0,20,0,1 @ F,0,0,1,0,20,0,1 @ F,0,0,1,0,20,0,1"
       radius="0"
       unit="px"
       method="auto"
       mode="F"
       chamfer_steps="1"
       flexible="false"
       use_knot_distance="true"
       apply_no_radius="true"
       apply_with_radius="true"
       only_selected="false"
       hide_knots="false" /><rect
       x="116.92663"
       y="131.94614"
       width="301.71954"
       height="311.91507"
       id="rect5" /><rect
       x="134.56223"
       y="144.81033"
       width="293.18524"
       height="242.8358"
       id="rect4" /><inkscape:path-effect
       effect="fillet_chamfer"
       id="path-effect4"
       is_visible="true"
       lpeversion="1"
       nodesatellites_param="F,0,0,1,0,20,0,1 @ F,0,0,1,0,20,0,1 @ F,0,0,1,0,20,0,1 @ F,0,0,1,0,20,0,1 @ F,0,0,1,0,20,0,1 @ F,0,0,1,0,20,0,1"
       radius="0"
       unit="px"
       method="auto"
       mode="F"
       chamfer_steps="1"
       flexible="false"
       use_knot_distance="true"
       apply_no_radius="true"
       apply_with_radius="true"
       only_selected="false"
       hide_knots="false" /><rect
       x="104.99759"
       y="201.88173"
       width="239.5854"
       height="131.24699"
       id="rect2" /><inkscape:path-effect
       effect="fillet_chamfer"
       id="path-effect2"
       is_visible="true"
       lpeversion="1"
       nodesatellites_param="F,0,0,1,0,20,0,1 @ F,0,0,1,0,20,0,1 @ F,0,0,1,0,20,0,1 @ F,0,0,1,0,20,0,1 @ F,0,0,1,0,20,0,1 @ F,0,0,1,0,20,0,1"
       radius="0"
       unit="px"
       method="auto"
       mode="F"
       chamfer_steps="1"
       flexible="false"
       use_knot_distance="true"
       apply_no_radius="true"
       apply_with_radius="true"
       only_selected="false"
       hide_knots="false" /><inkscape:path-effect
       effect="fillet_chamfer"
       id="path-effect1"
       is_visible="true"
       lpeversion="1"
       nodesatellites_param="F,0,0,1,0,0,0,1 @ F,0,0,1,0,0,0,1 @ F,0,0,1,0,0,0,1 @ F,0,0,1,0,0,0,1 @ F,0,0,1,0,0,0,1 @ F,0,0,1,0,0,0,1"
       radius="0"
       unit="px"
       method="auto"
       mode="F"
       chamfer_steps="1"
       flexible="false"
       use_knot_distance="true"
       apply_no_radius="true"
       apply_with_radius="true"
       only_selected="false"
       hide_knots="false" /><inkscape:path-effect
       effect="fillet_chamfer"
       id="path-effect2-4"
       is_visible="true"
       lpeversion="1"
       nodesatellites_param="F,0,0,1,0,20,0,1 @ F,0,0,1,0,20,0,1 @ F,0,0,1,0,20,0,1 @ F,0,0,1,0,20,0,1 @ F,0,0,1,0,20,0,1 @ F,0,0,1,0,20,0,1"
       radius="0"
       unit="px"
       method="auto"
       mode="F"
       chamfer_steps="1"
       flexible="false"
       use_knot_distance="true"
       apply_no_radius="true"
       apply_with_radius="true"
       only_selected="false"
       hide_knots="false" /><inkscape:path-effect
       effect="fillet_chamfer"
       id="path-effect2-45"
       is_visible="true"
       lpeversion="1"
       nodesatellites_param="F,0,0,1,0,20,0,1 @ F,0,0,1,0,20,0,1 @ F,0,0,1,0,20,0,1 @ F,0,0,1,0,20,0,1 @ F,0,0,1,0,20,0,1 @ F,0,0,1,0,20,0,1"
       radius="0"
       unit="px"
       method="auto"
       mode="F"
       chamfer_steps="1"
       flexible="false"
       use_knot_distance="true"
       apply_no_radius="true"
       apply_with_radius="true"
       only_selected="false"
       hide_knots="false" /></defs><g
     inkscape:label="Layer 1"
     id="layer1"
     transform="matrix(1.1601989,0,0,1.1601989,-59.606035,-80.915416)"
     inkscape:groupmode="layer"><g
       id="g16"
       inkscape:label="Logo"
       transform="translate(1.9074614,6.4884738)"><g
         id="g12"
         inkscape:label="Orange"
         transform="matrix(1.1108937,0,0,1.1108937,-21.922708,-13.550785)"><path
           sodipodi:type="star"
           style="fill:none;fill-opacity:1;stroke:#9c5205;stroke-width:52.8271;stroke-dasharray:none;stroke-opacity:1"
           id="path1-7"
           inkscape:flatsided="true"
           sodipodi:sides="6"
           sodipodi:cx="80.994011"
           sodipodi:cy="141.73952"
           sodipodi:r1="181.0993"
           sodipodi:r2="156.83659"
           sodipodi:arg1="0"
           sodipodi:arg2="0.52359878"
           inkscape:rounded="0"
           inkscape:randomized="0"
           transform="matrix(0.21584571,0,0,0.21584571,100.40575,94.485809)"
           inkscape:path-effect="#path-effect2-4"
           d="m 252.09332,159.06003 -70.54966,122.19558 a 34.641016,34.641016 150 0 1 -30,17.32051 l -141.099301,0 a 34.641016,34.641016 30 0 1 -30,-17.32051 L -90.105293,159.06003 a 34.641016,34.641016 90 0 1 0,-34.64102 L -19.555641,2.2234272 a 34.641016,34.641016 150 0 1 30,-17.3205082 l 141.099301,0 a 34.641016,34.641016 30 0 1 30,17.3205082 L 252.09332,124.41901 a 34.641016,34.641016 90 0 1 0,34.64102 z"
           inkscape:label="Orange2" /><path
           sodipodi:type="star"
           style="fill:none;fill-opacity:1;stroke:#ff972b;stroke-width:52.8271;stroke-dasharray:none;stroke-opacity:1"
           id="path7"
           inkscape:flatsided="true"
           sodipodi:sides="6"
           sodipodi:cx="80.994011"
           sodipodi:cy="141.73952"
           sodipodi:r1="181.0993"
           sodipodi:r2="156.83659"
           sodipodi:arg1="0"
           sodipodi:arg2="0.52359878"
           inkscape:rounded="0"
           inkscape:randomized="0"
           transform="matrix(0.21584571,0,0,0.21584571,97.99507,90.495175)"
           inkscape:path-effect="#path-effect9"
           d="m 252.09332,159.06003 -70.54966,122.19558 a 34.641016,34.641016 150 0 1 -30,17.32051 l -141.099301,0 a 34.641016,34.641016 30 0 1 -30,-17.32051 L -90.105293,159.06003 a 34.641016,34.641016 90 0 1 0,-34.64102 L -19.555641,2.2234272 a 34.641016,34.641016 150 0 1 30,-17.3205082 l 141.099301,0 a 34.641016,34.641016 30 0 1 30,17.3205082 L 252.09332,124.41901 a 34.641016,34.641016 90 0 1 0,34.64102 z"
           inkscape:label="Orange1" /></g><g
         id="g11"
         inkscape:label="Blue"
         transform="matrix(1.1108937,0,0,1.1108937,-25.909944,-17.832411)"><path
           sodipodi:type="star"
           style="fill:none;fill-opacity:1;stroke:#00759c;stroke-width:52.8271;stroke-dasharray:none;stroke-opacity:1"
           id="path1"
           inkscape:flatsided="true"
           sodipodi:sides="6"
           sodipodi:cx="80.994011"
           sodipodi:cy="141.73952"
           sodipodi:r1="181.0993"
           sodipodi:r2="156.83659"
           sodipodi:arg1="0"
           sodipodi:arg2="0.52359878"
           inkscape:rounded="0"
           inkscape:randomized="0"
           transform="matrix(0.17046379,0,0,0.17046379,95.796558,90.817999)"
           inkscape:path-effect="#path-effect2"
           d="m 252.09332,159.06003 -70.54966,122.19558 a 34.641016,34.641016 150 0 1 -30,17.32051 l -141.099301,0 a 34.641016,34.641016 30 0 1 -30,-17.32051 L -90.105293,159.06003 a 34.641016,34.641016 90 0 1 0,-34.64102 L -19.555641,2.2234272 a 34.641016,34.641016 150 0 1 30,-17.3205082 l 141.099301,0 a 34.641016,34.641016 30 0 1 30,17.3205082 L 252.09332,124.41901 a 34.641016,34.641016 90 0 1 0,34.64102 z"
           inkscape:label="Blue2" /><path
           sodipodi:type="star"
           style="fill:none;fill-opacity:1;stroke:#1bb8eb;stroke-width:52.8271;stroke-dasharray:none;stroke-opacity:1"
           id="path8"
           inkscape:flatsided="true"
           sodipodi:sides="6"
           sodipodi:cx="80.994011"
           sodipodi:cy="141.73952"
           sodipodi:r1="181.0993"
           sodipodi:r2="156.83659"
           sodipodi:arg1="0"
           sodipodi:arg2="0.52359878"
           inkscape:rounded="0"
           inkscape:randomized="0"
           transform="matrix(0.17046379,0,0,0.17046379,93.892733,87.6664)"
           inkscape:path-effect="#path-effect11"
           d="m 252.09332,159.06003 -70.54966,122.19558 a 34.641016,34.641016 150 0 1 -30,17.32051 l -141.099301,0 a 34.641016,34.641016 30 0 1 -30,-17.32051 L -90.105293,159.06003 a 34.641016,34.641016 90 0 1 0,-34.64102 L -19.555641,2.2234272 a 34.641016,34.641016 150 0 1 30,-17.3205082 l 141.099301,0 a 34.641016,34.641016 30 0 1 30,17.3205082 L 252.09332,124.41901 a 34.641016,34.641016 90 0 1 0,34.64102 z"
           inkscape:label="Blue1" /></g><g
         id="g13"
         inkscape:label="Green"
         transform="matrix(0.71892268,0,0,0.71892268,6.2904661,13.255779)"><path
           sodipodi:type="star"
           style="fill:none;fill-opacity:1;stroke:#1a9c75;stroke-width:52.8271;stroke-dasharray:none;stroke-opacity:1"
           id="path12"
           inkscape:flatsided="true"
           sodipodi:sides="6"
           sodipodi:cx="80.994011"
           sodipodi:cy="141.73952"
           sodipodi:r1="181.0993"
           sodipodi:r2="156.83659"
           sodipodi:arg1="0"
           sodipodi:arg2="0.52359878"
           inkscape:rounded="0"
           inkscape:randomized="0"
           transform="matrix(0.17046379,0,0,0.17046379,95.796558,90.817999)"
           inkscape:path-effect="#path-effect14"
           d="m 252.09332,159.06003 -70.54966,122.19558 a 34.641016,34.641016 150 0 1 -30,17.32051 l -141.099301,0 a 34.641016,34.641016 30 0 1 -30,-17.32051 L -90.105293,159.06003 a 34.641016,34.641016 90 0 1 0,-34.64102 L -19.555641,2.2234272 a 34.641016,34.641016 150 0 1 30,-17.3205082 l 141.099301,0 a 34.641016,34.641016 30 0 1 30,17.3205082 L 252.09332,124.41901 a 34.641016,34.641016 90 0 1 0,34.64102 z"
           inkscape:label="Green2" /><path
           sodipodi:type="star"
           style="fill:none;fill-opacity:1;stroke:#1ce8ab;stroke-width:52.8271;stroke-dasharray:none;stroke-opacity:1"
           id="path13"
           inkscape:flatsided="true"
           sodipodi:sides="6"
           sodipodi:cx="80.994011"
           sodipodi:cy="141.73952"
           sodipodi:r1="181.0993"
           sodipodi:r2="156.83659"
           sodipodi:arg1="0"
           sodipodi:arg2="0.52359878"
           inkscape:rounded="0"
           inkscape:randomized="0"
           transform="matrix(0.17046379,0,0,0.17046379,93.892733,87.6664)"
           inkscape:path-effect="#path-effect16"
           d="m 252.09332,159.06003 -70.54966,122.19558 a 34.641016,34.641016 150 0 1 -30,17.32051 l -141.099301,0 a 34.641016,34.641016 30 0 1 -30,-17.32051 L -90.105293,159.06003 a 34.641016,34.641016 90 0 1 0,-34.64102 L -19.555641,2.2234272 a 34.641016,34.641016 150 0 1 30,-17.3205082 l 141.099301,0 a 34.641016,34.641016 30 0 1 30,17.3205082 L 252.09332,124.41901 a 34.641016,34.641016 90 0 1 0,34.64102 z"
           inkscape:label="Green1" /></g></g></g></svg>
