<?xml version="1.0" encoding="UTF-8" standalone="no"?>
<!-- Created with Inkscape (http://www.inkscape.org/) -->

<svg
   width="320mm"
   height="180mm"
   viewBox="0 0 319.99999 180"
   version="1.1"
   id="svg1"
   xml:space="preserve"
   inkscape:version="1.3 (0e150ed6c4, 2023-07-21)"
   sodipodi:docname="banner.svg"
   xmlns:inkscape="http://www.inkscape.org/namespaces/inkscape"
   xmlns:sodipodi="http://sodipodi.sourceforge.net/DTD/sodipodi-0.dtd"
   xmlns="http://www.w3.org/2000/svg"
   xmlns:svg="http://www.w3.org/2000/svg"><sodipodi:namedview
     id="namedview1"
     pagecolor="#2f384d"
     bordercolor="#000000"
     borderopacity="0.25"
     inkscape:showpageshadow="2"
     inkscape:pageopacity="0.0"
     inkscape:pagecheckerboard="0"
     inkscape:deskcolor="#d1d1d1"
     inkscape:document-units="mm"
     inkscape:zoom="0.45968013"
     inkscape:cx="537.33016"
     inkscape:cy="287.1562"
     inkscape:window-width="1280"
     inkscape:window-height="754"
     inkscape:window-x="-6"
     inkscape:window-y="-6"
     inkscape:window-maximized="1"
     inkscape:current-layer="layer1" /><defs
     id="defs1"><mask
       maskUnits="userSpaceOnUse"
       id="mask12"><path
         id="path13"
         style="fill:#d0d19d;fill-opacity:1;stroke:none;stroke-width:0.288504;stroke-dasharray:none;stroke-opacity:1;paint-order:markers fill stroke"
         d="m 101.72674,248.95925 11.81572,26.41857 5.7e-4,-13.20952 v 13.20952 l 11.81571,-26.41857 h -11.81572 -5.7e-4 z m 11.81572,26.41857 -31.1142,-10.03189 v 10.03237 4.8e-4 10.03236 l 31.11476,-10.03236 -15.557659,-4.8e-4 h 15.557659 z m 5.7e-4,4.8e-4 15.55766,4.9e-4 h -15.55767 l 31.11476,10.03236 v -10.03236 -4.9e-4 -10.03237 z m 0,10e-4 -11.81573,26.41857 h 11.81573 5.4e-4 11.81573 l -11.81573,-26.41861 -5.4e-4,13.20952 z" /></mask></defs><g
     inkscape:label="Layer 1"
     inkscape:groupmode="layer"
     id="layer1"
     transform="translate(0,-92.759756)"><g
       inkscape:label="Layer 1"
       id="layer1-4"
       transform="matrix(0.48011187,0,0,0.56545701,66.179384,50.770795)"
       style="display:inline"><g
         id="g60"
         transform="matrix(1.1108462,0,0,1.1108462,-20.535032,-21.804278)"><g
           id="g42"
           inkscape:label="Card"
           transform="matrix(0.16195517,0.47960242,-0.67486859,0.06863108,301.60487,126.18191)"
           style="display:inline;stroke:none;stroke-width:0;stroke-dasharray:none;stroke-opacity:1;paint-order:markers fill stroke"><rect
             style="display:none;fill:#000000;fill-opacity:1;stroke:none;stroke-width:3.25811;stroke-dasharray:none;stroke-opacity:1;paint-order:markers fill stroke"
             id="rect58"
             width="139.42284"
             height="173.24806"
             x="-180.30814"
             y="105.73603"
             ry="0"
             transform="matrix(0.39183238,-0.92003664,0.91840323,0.39564571,-2.692547e-7,-2.6439988e-6)" /><rect
             style="fill:#344e41;fill-opacity:1;stroke:none;stroke-width:0;stroke-dasharray:none;stroke-opacity:1;paint-order:markers fill stroke"
             id="rect39"
             width="164.25615"
             height="91.898941"
             x="110.71479"
             y="64.330788"
             ry="12.338283"
             transform="rotate(23.28354)"
             inkscape:label="Card Back" /><g
             id="g51"
             inkscape:label="Diamonds"
             style="fill:#dad7cd;fill-opacity:1"
             transform="matrix(0.85323687,0,0,0.85323687,32.070765,22.773035)"><rect
               style="fill:#dad7cd;fill-opacity:1;stroke:none;stroke-width:0;stroke-dasharray:none;stroke-opacity:1;paint-order:markers fill stroke"
               id="rect40"
               width="35.179501"
               height="35.179504"
               x="-239.96004"
               y="-30.181709"
               transform="matrix(-0.59076727,-0.80684201,0.98788312,-0.15519967,0,0)"
               inkscape:label="diamond2" /><rect
               style="fill:#dad7cd;fill-opacity:1;stroke:none;stroke-width:0;stroke-dasharray:none;stroke-opacity:1;paint-order:markers fill stroke"
               id="rect42"
               width="17.307077"
               height="17.307079"
               x="219.03809"
               y="-74.858147"
               transform="matrix(0.59076727,0.80684201,-0.98788312,0.15519967,0,0)"
               inkscape:label="diamond" /><rect
               style="fill:#dad7cd;fill-opacity:1;stroke:none;stroke-width:0;stroke-dasharray:none;stroke-opacity:1;paint-order:markers fill stroke"
               id="rect43"
               width="17.307077"
               height="17.307079"
               x="206.80618"
               y="81.542618"
               transform="matrix(0.59076727,0.80684201,-0.98788312,0.15519967,0,0)"
               inkscape:label="diamond" /></g></g><g
           id="g54"
           inkscape:label="Dice"
           transform="matrix(1.7911084,-0.26273257,0.36444183,1.7911084,-463.53978,-226.66843)"><rect
             style="display:none;fill:#000000;fill-opacity:1;stroke:none;stroke-width:0.892855;stroke-dasharray:none;stroke-opacity:1;paint-order:markers fill stroke"
             id="rect59"
             width="46.2216"
             height="39.245312"
             x="261.80945"
             y="272.84692"
             ry="0" /><rect
             style="fill:#466d4d;fill-opacity:1;stroke:none;stroke-width:1.29778;stroke-dasharray:none;stroke-opacity:1;paint-order:markers fill stroke"
             id="rect53"
             width="41.562702"
             height="35.289593"
             x="264.13892"
             y="274.8248"
             ry="6.5566497" /><ellipse
             style="display:inline;fill:#dad7cd;fill-opacity:1;stroke:none;stroke-width:0.447393;stroke-dasharray:none;stroke-opacity:1;paint-order:markers fill stroke"
             id="path53"
             cx="397.44394"
             cy="38.98262"
             rx="3.9964623"
             ry="3.9964626"
             transform="matrix(0.76228952,0.6472362,-0.76228952,0.6472362,0,0)" /><ellipse
             style="display:inline;fill:#dad7cd;fill-opacity:1;stroke:none;stroke-width:0.447393;stroke-dasharray:none;stroke-opacity:1;paint-order:markers fill stroke"
             id="ellipse53"
             cx="428.54471"
             cy="38.98262"
             rx="3.9964623"
             ry="3.9964626"
             transform="matrix(0.76228952,0.6472362,-0.76228952,0.6472362,0,0)" /><ellipse
             style="fill:#dad7cd;fill-opacity:1;stroke:none;stroke-width:0.447393;stroke-dasharray:none;stroke-opacity:1;paint-order:markers fill stroke"
             id="ellipse54"
             cx="-54.533005"
             cy="412.99432"
             rx="3.9964623"
             ry="3.9964626"
             transform="matrix(0.76228951,-0.6472362,0.76228951,0.6472362,0,0)" /><ellipse
             style="fill:#dad7cd;fill-opacity:1;stroke:none;stroke-width:0.447393;stroke-dasharray:none;stroke-opacity:1;paint-order:markers fill stroke"
             id="ellipse55"
             cx="-23.432234"
             cy="412.99432"
             rx="3.9964623"
             ry="3.9964626"
             transform="matrix(0.76228951,-0.6472362,0.76228951,0.6472362,0,0)" /><ellipse
             style="fill:#dad7cd;fill-opacity:1;stroke:none;stroke-width:0.447393;stroke-dasharray:none;stroke-opacity:1;paint-order:markers fill stroke"
             id="ellipse56"
             cx="-39.052746"
             cy="412.82184"
             rx="3.9964623"
             ry="3.9964626"
             transform="matrix(0.76228951,-0.6472362,0.76228951,0.6472362,0,0)" /></g><g
           id="g39"
           inkscape:label="Poker Chip"
           transform="matrix(2.2329322,0.45265327,-0.62788478,2.2329321,148.99824,-423.17932)"
           style="display:inline"><rect
             style="display:none;fill:#000000;fill-opacity:1;stroke:none;stroke-width:0.822298;stroke-dasharray:none;stroke-opacity:1;paint-order:markers fill stroke"
             id="rect60"
             width="42.189415"
             height="36.469181"
             x="13.761369"
             y="275.01712"
             ry="0"
             transform="matrix(0.98006525,-0.19867587,0.27069468,0.96266525,0,0)" /><ellipse
             style="fill:#588157;fill-opacity:1;stroke:none;stroke-width:0.170366;stroke-dasharray:none;stroke-opacity:1;paint-order:markers fill stroke"
             id="ellipse37"
             cx="113.54291"
             cy="275.37817"
             rx="13.257131"
             ry="11.256214" /><path
             id="path38"
             style="display:inline;fill:#466d4d;fill-opacity:1;stroke:none;stroke-width:0.264841;stroke-dasharray:none;stroke-opacity:1;paint-order:markers fill stroke"
             d="m 113.54297,257.87966 a 20.608794,17.498282 0 0 0 -20.609044,17.4985 20.608794,17.498282 0 0 0 20.609044,17.49807 20.608794,17.498282 0 0 0 20.60854,-17.49807 20.608794,17.498282 0 0 0 -20.60854,-17.4985 z m 0,6.24222 a 13.25713,11.256215 0 0 1 13.25721,11.25628 13.25713,11.256215 0 0 1 -13.25721,11.25628 13.25713,11.256215 0 0 1 -13.2572,-11.25628 13.25713,11.256215 0 0 1 13.2572,-11.25628 z" /><path
             id="path39"
             style="fill:#fefffe;fill-opacity:1;stroke:none;stroke-width:0.288505;stroke-dasharray:none;stroke-opacity:1;paint-order:markers fill stroke"
             d="m 113.54299,256.31616 a 22.450212,19.061773 0 0 0 -22.450492,19.06201 22.450212,19.061773 0 0 0 22.450492,19.06154 22.450212,19.061773 0 0 0 22.44993,-19.06154 22.450212,19.061773 0 0 0 -22.44993,-19.06201 z m 0,6.79997 a 14.441669,12.26197 0 0 1 14.44175,12.26204 14.441669,12.26197 0 0 1 -14.44175,12.26204 14.441669,12.26197 0 0 1 -14.441752,-12.26204 14.441669,12.26197 0 0 1 14.441752,-12.26204 z"
             mask="url(#mask12)"
             sodipodi:insensitive="true"
             transform="matrix(0.91797769,0,0,0.91797769,9.3130453,22.587142)" /></g><g
           id="g57"
           transform="matrix(1.4165883,0,0,1.4165883,-219.35712,-137.8103)"
           inkscape:label="Meeple"><rect
             style="display:none;fill:#000000;fill-opacity:1;stroke:none;stroke-width:1.33077;stroke-dasharray:none;stroke-opacity:1;paint-order:markers fill stroke"
             id="rect57"
             width="68.891624"
             height="58.493721"
             x="222.59534"
             y="256.29984"
             ry="0" /><path
             style="fill:#a3b18a;fill-opacity:1;stroke:none;stroke-width:0.966265;stroke-dasharray:none;stroke-opacity:1;paint-order:markers fill stroke"
             d="m 256.53943,309.00138 c -3.70074,-0.11322 -3.65678,-0.0781 -3.05043,-2.43917 0.96854,-3.77139 2.83609,-7.33219 6.99402,-13.3352 3.21891,-4.64728 4.03382,-6.02009 4.16367,-7.0142 0.18446,-1.41229 -0.3249,-1.6364 -4.27904,-1.88285 -5.12145,-0.31918 -8.22703,-1.40528 -9.39034,-3.28403 -0.46031,-0.74338 -0.3936,-2.14441 0.14748,-3.09782 1.87257,-3.2994 7.32189,-6.19937 16.39846,-8.72678 1.86414,-0.51907 3.51551,-1.04753 3.66973,-1.17434 0.15587,-0.12818 0.40596,-1.10681 0.56322,-2.20383 0.59254,-4.13439 2.35572,-6.59116 5.75458,-8.01829 1.37504,-0.57736 1.51161,-0.59791 3.97194,-0.59772 3.07008,3e-4 4.3527,0.35085 6.07633,1.66104 2.04183,1.5521 3.07567,3.52834 3.59317,6.86859 0.14565,0.9401 0.38968,1.8796 0.54227,2.08779 0.20433,0.27876 0.93815,0.53177 2.78436,0.96003 6.19917,1.43804 12.12132,4.06421 15.35408,6.80878 1.71826,1.45878 2.17894,2.24177 2.28225,3.87895 0.072,1.1419 0.022,1.3358 -0.53432,2.07434 -1.17715,1.56246 -3.87642,2.38122 -8.88064,2.69379 -3.87247,0.24187 -4.44037,0.49254 -4.25356,1.87745 0.14268,1.0577 0.97702,2.46537 4.01656,6.7766 4.27873,6.06889 5.66581,8.58302 6.92138,12.54515 0.29052,0.91679 0.49968,2.00438 0.4648,2.41685 -0.0555,0.65685 -0.14234,0.77049 -0.69894,0.91523 -0.34954,0.0909 -4.65064,0.18382 -9.55796,0.20649 -7.14619,0.033 -8.99009,-0.005 -9.26243,-0.19742 -0.18702,-0.13124 -1.80188,-2.15342 -3.58858,-4.49369 -3.67488,-4.81351 -4.29012,-5.46827 -5.13708,-5.46698 -0.83387,10e-4 -1.37244,0.51139 -3.55244,3.36468 -1.06634,1.39568 -2.63645,3.45221 -3.48913,4.57009 -0.85267,1.11787 -1.66966,2.06569 -1.8155,2.10622 -0.42899,0.11929 -13.15424,0.21369 -16.20788,0.12026 z"
             id="path51"
             inkscape:label="Meeple" /></g></g></g><text
       xml:space="preserve"
       style="font-size:58.9079px;font-family:mukta;-inkscape-font-specification:mukta;letter-spacing:0px;fill:#f9f9f9;stroke-width:1.309;paint-order:markers fill stroke"
       x="29.283419"
       y="158.73457"
       id="text1"><tspan
         sodipodi:role="line"
         id="tspan1"
         style="stroke-width:1.309"
         x="29.283419"
         y="158.73457">TABLETOP</tspan></text><text
       xml:space="preserve"
       style="font-size:58.9079px;font-family:mukta;-inkscape-font-specification:mukta;letter-spacing:0px;fill:#f9f9f9;stroke-width:1.309;paint-order:markers fill stroke"
       x="61.682682"
       y="243.95584"
       id="text2"><tspan
         sodipodi:role="line"
         id="tspan2"
         style="stroke-width:1.309"
         x="61.682682"
         y="243.95584">ENGINE</tspan></text></g></svg>
