<!DOCTYPE svg PUBLIC "-//W3C//DTD SVG 1.1//EN" "http://www.w3.org/Graphics/SVG/1.1/DTD/svg11.dtd">
<!-- Uploaded to: SVG Repo, www.svgrepo.com, Transformed by: SVG Repo Mixer Tools -->
<svg width="64px" height="64px" viewBox="0 0 24 24" id="Layer_1" data-name="Layer 1" xmlns="http://www.w3.org/2000/svg" fill="#ffffff" stroke="#ffffff">
<g id="SVGRepo_bgCarrier" stroke-width="0"/>
<g id="SVGRepo_tracerCarrier" stroke-linecap="round" stroke-linejoin="round"/>
<g id="SVGRepo_iconCarrier">
<defs>
<style>.cls-1{fill:none;stroke:#ffffff;stroke-miterlimit:10;stroke-width:1.88px;}</style>
</defs>
<path class="cls-1" d="M10.12,22.31l-5-5a2,2,0,0,1-.58-1.41,2,2,0,0,1,.58-1.4,2,2,0,0,1,1.41-.59,2,2,0,0,1,1.4.59l1.3,1.29V6.48a1.94,1.94,0,0,1,1.71-2,1.89,1.89,0,0,1,2,1.86V12l5,.71a1.87,1.87,0,0,1,1.61,1.85h0a16.9,16.9,0,0,1-1.79,7.58l-.09.17"/>
<path class="cls-1" d="M12.94,10.67a4.55,4.55,0,0,0,1.44-1,4.69,4.69,0,1,0-6.64,0,4.59,4.59,0,0,0,1.45,1"/>
</g>
</svg>